<svg width="414" height="492" viewBox="0 0 414 492" fill="none" xmlns="http://www.w3.org/2000/svg">
<path fill-rule="evenodd" clip-rule="evenodd" d="M207 365C251.183 365 287 329.183 287 285C287 240.817 251.183 205 207 205C162.817 205 127 240.817 127 285C127 329.183 162.817 365 207 365ZM207 366C251.735 366 288 329.735 288 285C288 240.265 251.735 204 207 204C162.265 204 126 240.265 126 285C126 329.735 162.265 366 207 366Z" fill="#20B486" fill-opacity="0.25"/>
<path fill-rule="evenodd" clip-rule="evenodd" d="M207.5 417C280.125 417 339 358.125 339 285.5C339 212.875 280.125 154 207.5 154C134.875 154 76 212.875 76 285.5C76 358.125 134.875 417 207.5 417ZM207.5 418C280.678 418 340 358.678 340 285.5C340 212.322 280.678 153 207.5 153C134.322 153 75 212.322 75 285.5C75 358.678 134.322 418 207.5 418Z" fill="#20B486" fill-opacity="0.25"/>
<path fill-rule="evenodd" clip-rule="evenodd" d="M207 456C301.441 456 378 379.441 378 285C378 190.559 301.441 114 207 114C112.559 114 36 190.559 36 285C36 379.441 112.559 456 207 456ZM207 457C301.993 457 379 379.993 379 285C379 190.007 301.993 113 207 113C112.007 113 35 190.007 35 285C35 379.993 112.007 457 207 457Z" fill="#20B486" fill-opacity="0.25"/>
<path fill-rule="evenodd" clip-rule="evenodd" d="M207 491C320.771 491 413 398.771 413 285C413 171.229 320.771 79 207 79C93.2293 79 1 171.229 1 285C1 398.771 93.2293 491 207 491ZM207 492C321.323 492 414 399.323 414 285C414 170.677 321.323 78 207 78C92.6771 78 0 170.677 0 285C0 399.323 92.6771 492 207 492Z" fill="#20B486" fill-opacity="0.25"/>
<path d="M27 373C27 376.866 23.866 380 20 380C16.134 380 13 376.866 13 373C13 369.134 16.134 366 20 366C23.866 366 27 369.134 27 373Z" fill="#FF7B00"/>
</svg>
