<svg width="407" height="489" viewBox="0 0 407 489" fill="none" xmlns="http://www.w3.org/2000/svg">
<path fill-rule="evenodd" clip-rule="evenodd" d="M200 362C244.183 362 280 326.183 280 282C280 237.817 244.183 202 200 202C155.817 202 120 237.817 120 282C120 326.183 155.817 362 200 362ZM200 363C244.735 363 281 326.735 281 282C281 237.265 244.735 201 200 201C155.265 201 119 237.265 119 282C119 326.735 155.265 363 200 363Z" fill="#20B486" fill-opacity="0.25"/>
<path fill-rule="evenodd" clip-rule="evenodd" d="M200.5 414C273.125 414 332 355.125 332 282.5C332 209.875 273.125 151 200.5 151C127.875 151 69 209.875 69 282.5C69 355.125 127.875 414 200.5 414ZM200.5 415C273.678 415 333 355.678 333 282.5C333 209.322 273.678 150 200.5 150C127.322 150 68 209.322 68 282.5C68 355.678 127.322 415 200.5 415Z" fill="#20B486" fill-opacity="0.25"/>
<path fill-rule="evenodd" clip-rule="evenodd" d="M200 453C294.441 453 371 376.441 371 282C371 187.559 294.441 111 200 111C105.559 111 29 187.559 29 282C29 376.441 105.559 453 200 453ZM200 454C294.993 454 372 376.993 372 282C372 187.007 294.993 110 200 110C105.007 110 28 187.007 28 282C28 376.993 105.007 454 200 454Z" fill="#20B486" fill-opacity="0.25"/>
<path fill-rule="evenodd" clip-rule="evenodd" d="M200 488C313.771 488 406 395.771 406 282C406 168.229 313.771 76 200 76C86.2293 76 -6 168.229 -6 282C-6 395.771 86.2293 488 200 488ZM200 489C314.323 489 407 396.323 407 282C407 167.677 314.323 75 200 75C85.6771 75 -7 167.677 -7 282C-7 396.323 85.6771 489 200 489Z" fill="#20B486" fill-opacity="0.25"/>
<path d="M63 123C63 125.761 65.2386 128 68 128C70.7614 128 73 125.761 73 123C73 120.239 70.7614 118 68 118C65.2386 118 63 120.239 63 123Z" fill="#FF7B00"/>
</svg>
