<svg width="81" height="80" viewBox="0 0 81 80" fill="none" xmlns="http://www.w3.org/2000/svg">
<path d="M40.3601 4C45.0877 4 49.769 4.93117 54.1367 6.74034C58.5044 8.54951 62.473 11.2012 65.816 14.5442C69.1589 17.8871 71.8106 21.8557 73.6198 26.2234C75.4289 30.5911 76.3601 35.2724 76.3601 40C76.3601 44.7276 75.4289 49.4089 73.6198 53.7766C71.8106 58.1443 69.1589 62.1129 65.8159 65.4559C62.473 68.7988 58.5044 71.4505 54.1367 73.2597C49.769 75.0688 45.0877 76 40.3601 76C35.6325 76 30.9512 75.0688 26.5835 73.2597C22.2158 71.4505 18.2472 68.7987 14.9043 65.4558C11.5613 62.1129 8.90961 58.1443 7.10044 53.7766C5.29127 49.4089 4.36011 44.7276 4.36011 40C4.36011 35.2724 5.29128 30.5911 7.10045 26.2234C8.90962 21.8557 11.5614 17.887 14.9043 14.5441C18.2472 11.2012 22.2158 8.5495 26.5835 6.74033C30.9512 4.93116 35.6325 4 40.3601 4L40.3601 4Z" stroke="#EAECF0" strokeWidth="8" stroke-linecap="round" stroke-linejoin="round"/>
<path d="M40.3601 4C47.9626 4 55.3699 6.40678 61.5204 10.8754C67.6709 15.344 72.2489 21.645 74.5981 28.8754C76.9474 36.1058 76.9474 43.8943 74.5981 51.1246C72.2489 58.355 67.6709 64.656 61.5204 69.1246" stroke="#FF7B00" strokeWidth="8" stroke-linecap="round" stroke-linejoin="round"/>
</svg>
