<svg width="37" height="37" viewBox="0 0 37 37" fill="none" xmlns="http://www.w3.org/2000/svg">
<g clip-path="url(#clip0_8_3087)">
<path d="M32.985 24.735H31.71V23.61H32.985C33.885 23.61 34.635 22.86 34.635 21.96V14.085C34.635 12.66 33.435 11.46 32.01 11.46H23.76C22.335 11.46 21.135 12.66 21.135 14.085V21.96C21.135 22.86 21.885 23.61 22.785 23.61H24.06V24.735H22.785C21.21 24.735 20.01 23.46 20.01 21.96V14.085C20.01 11.985 21.66 10.335 23.76 10.335H32.085C34.185 10.335 35.835 11.985 35.835 14.085V21.96C35.835 23.535 34.56 24.735 32.985 24.735ZM27.885 9.13501C25.635 9.13501 23.76 7.26001 23.76 5.01001C23.76 2.76001 25.635 0.88501 27.885 0.88501C30.135 0.88501 32.01 2.76001 32.01 5.01001C32.01 7.26001 30.21 9.13501 27.885 9.13501ZM27.885 2.08501C26.235 2.08501 24.885 3.43501 24.885 5.08501C24.885 6.73501 26.235 8.08501 27.885 8.08501C29.535 8.08501 30.885 6.73501 30.885 5.08501C30.885 3.43501 29.535 2.08501 27.885 2.08501Z" fill="#F5F5F4"/>
<path d="M29.8351 35.8351C29.0851 35.8351 28.4101 35.4601 27.9601 34.9351C27.5101 35.4601 26.8351 35.8351 26.0851 35.8351C24.7351 35.8351 23.6101 34.7101 23.6101 33.3601V15.0601H24.7351V33.3601C24.7351 34.1101 25.3351 34.7101 26.0851 34.7101C26.8351 34.7101 27.3601 34.0351 27.3601 33.3601V24.2101H28.4851V33.3601C28.4851 34.1101 29.0851 34.7101 29.8351 34.7101C30.5851 34.7101 31.1851 34.1101 31.1851 33.3601V15.0601H32.3101V33.3601C32.3101 34.7101 31.1851 35.8351 29.8351 35.8351Z" fill="#F5F5F4"/>
<path d="M21.7352 28.0351H0.960205V4.48511H22.1102V5.61011H2.0852V26.9101H21.7352V28.0351Z" fill="#F5F5F4"/>
<path d="M18.0602 14.9851H5.16016V16.1101H18.0602V14.9851Z" fill="#F5F5F4"/>
<path d="M18.0602 18.8101H5.16016V19.9351H18.0602V18.8101Z" fill="#F5F5F4"/>
<path d="M18.0602 22.71H5.16016V23.835H18.0602V22.71Z" fill="#F5F5F4"/>
</g>
<defs>
<clipPath id="clip0_8_3087">
<rect width="36" height="36" fill="white" transform="translate(0.360107 0.360107)"/>
</clipPath>
</defs>
</svg>
